<svg width="314" height="229" viewBox="0 0 314 229" fill="none" xmlns="http://www.w3.org/2000/svg">
<g clip-path="url(#clip0_3975_5)">
<path d="M182.904 40.2596C188.789 40.2596 193.56 35.4889 193.56 29.604C193.56 23.719 188.789 18.9484 182.904 18.9484C177.019 18.9484 172.249 23.719 172.249 29.604C172.249 35.4889 177.019 40.2596 182.904 40.2596Z" fill="#F2F2F2"/>
<path d="M265.563 198.401C281.402 186.337 288.967 166.065 284.231 146.728C284.113 146.247 283.989 145.768 283.858 145.289C280.718 133.811 272.951 122.901 261.63 119.233C252.124 116.154 241.748 118.522 231.831 117.297C212.364 114.893 197.271 99.1417 186.651 82.6498C176.032 66.1578 167.87 47.6975 153.759 34.0727C130.499 11.6146 92.556 6.7794 63.7169 21.3979C34.8779 36.0165 16.5078 68.449 17.2912 100.772C18.0747 133.095 37.2634 163.998 65.1302 180.394C75.3674 186.417 87.2076 190.684 98.9911 189.191C109.215 187.896 118.505 182.402 128.682 180.771C144.681 178.207 160.578 185.441 174.417 193.87C188.255 202.3 201.622 212.291 217.347 216.199C232.616 219.994 251.533 209.087 265.563 198.401Z" fill="#E4F5FF"/>
<path d="M242.807 22.0768C242.46 21.8454 242.109 21.6259 241.762 21.4024C231.726 14.9836 220.968 9.769 209.712 5.8664L207.102 41.8709H190.557V0.610584C189.515 0.395084 188.465 0.191556 187.416 0V41.8709H167.753C156.929 41.8709 146.548 37.571 138.894 29.917C131.24 22.263 126.94 11.882 126.94 1.05759C125.887 1.28507 124.841 1.52847 123.795 1.78787V41.8709H107.781L105.294 7.53853C93.727 11.9748 82.7454 17.8086 72.5941 24.9103C72.4185 25.03 72.2429 25.1537 72.0713 25.2734C71.1893 25.892 70.3194 26.5225 69.4534 27.161V164.519H116.652L115.818 152.965L111.229 89.5324H203.65L199.061 152.965L198.227 164.519H244.903V23.4656C244.208 22.9947 243.51 22.5318 242.807 22.0768ZM123.795 79.0567H110.47L108.008 45.0156H123.795V79.0567ZM187.416 79.0567H165.036V78.3823C165.036 78.0581 164.972 77.737 164.848 77.4375C164.724 77.1381 164.541 76.866 164.312 76.6369C164.083 76.4078 163.81 76.2263 163.511 76.1026C163.211 75.9789 162.89 75.9155 162.566 75.916H152.836C152.512 75.9159 152.191 75.9796 151.892 76.1035C151.593 76.2274 151.321 76.409 151.092 76.6381C150.863 76.8671 150.681 77.139 150.557 77.4383C150.433 77.7376 150.37 78.0584 150.37 78.3823V79.0567H126.94V45.0156H187.416V79.0567ZM190.557 79.0567V45.0156H206.875L204.413 79.0567H190.557Z" fill="#A2CEFD"/>
<path d="M0 173.314C3.46686 177.422 7.21667 181.283 11.222 184.868L302.778 185.267C306.783 181.682 310.533 177.821 314 173.714L0 173.314Z" fill="#242528"/>
<path d="M197.714 136.32V170.523C197.714 170.959 197.887 171.377 198.195 171.685C198.504 171.993 198.922 172.166 199.357 172.167H250.042C250.478 172.166 250.895 171.993 251.204 171.685C251.512 171.377 251.685 170.959 251.686 170.523V136.32C251.685 135.885 251.511 135.468 251.203 135.16C250.895 134.852 250.477 134.679 250.042 134.678H199.357C198.922 134.679 198.504 134.852 198.196 135.16C197.888 135.468 197.715 135.885 197.714 136.32Z" fill="#3F3D56"/>
<path d="M198.903 136.746V170.101C198.903 170.334 198.996 170.557 199.16 170.722C199.325 170.886 199.548 170.979 199.781 170.979H249.62C249.853 170.979 250.076 170.886 250.241 170.722C250.405 170.557 250.498 170.334 250.498 170.101V136.746C250.498 136.513 250.406 136.289 250.241 136.124C250.076 135.959 249.853 135.866 249.62 135.866H199.781C199.548 135.866 199.325 135.959 199.16 136.124C198.995 136.289 198.903 136.513 198.903 136.746Z" fill="#242528"/>
<path d="M196.654 177.193C196.746 177.31 196.864 177.403 196.999 177.468C197.133 177.532 197.28 177.565 197.429 177.564H251.7C251.848 177.564 251.995 177.531 252.129 177.467C252.263 177.403 252.381 177.31 252.474 177.195C252.568 177.079 252.635 176.945 252.669 176.801C252.704 176.656 252.707 176.506 252.676 176.361L251.834 172.359C251.799 172.196 251.724 172.044 251.615 171.917C251.506 171.791 251.368 171.693 251.212 171.634C251.099 171.589 250.979 171.567 250.858 171.567H198.268C198.147 171.567 198.027 171.589 197.914 171.634C197.758 171.693 197.619 171.791 197.511 171.917C197.402 172.044 197.327 172.196 197.292 172.359L196.45 176.361C196.42 176.506 196.422 176.656 196.458 176.8C196.493 176.944 196.56 177.078 196.654 177.193Z" fill="#242528"/>
<path d="M248.995 173.29H250.277C250.385 173.29 250.472 173.203 250.472 173.096V172.482C250.472 172.375 250.385 172.288 250.277 172.288H248.995C248.888 172.288 248.801 172.375 248.801 172.482V173.096C248.801 173.203 248.888 173.29 248.995 173.29Z" fill="#3F3D56"/>
<path d="M245.653 173.29H246.935C247.042 173.29 247.129 173.203 247.129 173.096V172.482C247.129 172.375 247.042 172.288 246.935 172.288H245.653C245.545 172.288 245.458 172.375 245.458 172.482V173.096C245.458 173.203 245.545 173.29 245.653 173.29Z" fill="#3F3D56"/>
<path d="M242.309 173.29H243.591C243.699 173.29 243.786 173.203 243.786 173.096V172.482C243.786 172.375 243.699 172.288 243.591 172.288H242.309C242.202 172.288 242.115 172.375 242.115 172.482V173.096C242.115 173.203 242.202 173.29 242.309 173.29Z" fill="#3F3D56"/>
<path d="M238.966 173.29H240.248C240.356 173.29 240.443 173.203 240.443 173.096V172.482C240.443 172.375 240.356 172.288 240.248 172.288H238.966C238.859 172.288 238.772 172.375 238.772 172.482V173.096C238.772 173.203 238.859 173.29 238.966 173.29Z" fill="#3F3D56"/>
<path d="M235.623 173.29H236.905C237.013 173.29 237.1 173.203 237.1 173.096V172.482C237.1 172.375 237.013 172.288 236.905 172.288H235.623C235.516 172.288 235.429 172.375 235.429 172.482V173.096C235.429 173.203 235.516 173.29 235.623 173.29Z" fill="#3F3D56"/>
<path d="M232.28 173.29H233.562C233.67 173.29 233.757 173.203 233.757 173.096V172.482C233.757 172.375 233.67 172.288 233.562 172.288H232.28C232.173 172.288 232.086 172.375 232.086 172.482V173.096C232.086 173.203 232.173 173.29 232.28 173.29Z" fill="#3F3D56"/>
<path d="M228.937 173.29H230.219C230.327 173.29 230.414 173.203 230.414 173.096V172.482C230.414 172.375 230.327 172.288 230.219 172.288H228.937C228.83 172.288 228.743 172.375 228.743 172.482V173.096C228.743 173.203 228.83 173.29 228.937 173.29Z" fill="#3F3D56"/>
<path d="M225.594 173.29H226.876C226.984 173.29 227.071 173.203 227.071 173.096V172.482C227.071 172.375 226.984 172.288 226.876 172.288H225.594C225.486 172.288 225.399 172.375 225.399 172.482V173.096C225.399 173.203 225.486 173.29 225.594 173.29Z" fill="#3F3D56"/>
<path d="M222.251 173.29H223.533C223.641 173.29 223.728 173.203 223.728 173.096V172.482C223.728 172.375 223.641 172.288 223.533 172.288H222.251C222.144 172.288 222.056 172.375 222.056 172.482V173.096C222.056 173.203 222.144 173.29 222.251 173.29Z" fill="#3F3D56"/>
<path d="M218.908 173.29H220.19C220.298 173.29 220.385 173.203 220.385 173.096V172.482C220.385 172.375 220.298 172.288 220.19 172.288H218.908C218.801 172.288 218.713 172.375 218.713 172.482V173.096C218.713 173.203 218.801 173.29 218.908 173.29Z" fill="#3F3D56"/>
<path d="M215.565 173.29H216.847C216.955 173.29 217.042 173.203 217.042 173.096V172.482C217.042 172.375 216.955 172.288 216.847 172.288H215.565C215.457 172.288 215.37 172.375 215.37 172.482V173.096C215.37 173.203 215.457 173.29 215.565 173.29Z" fill="#3F3D56"/>
<path d="M212.222 173.29H213.504C213.611 173.29 213.699 173.203 213.699 173.096V172.482C213.699 172.375 213.611 172.288 213.504 172.288H212.222C212.114 172.288 212.027 172.375 212.027 172.482V173.096C212.027 173.203 212.114 173.29 212.222 173.29Z" fill="#3F3D56"/>
<path d="M208.879 173.29H210.161C210.268 173.29 210.356 173.203 210.356 173.096V172.482C210.356 172.375 210.268 172.288 210.161 172.288H208.879C208.771 172.288 208.684 172.375 208.684 172.482V173.096C208.684 173.203 208.771 173.29 208.879 173.29Z" fill="#3F3D56"/>
<path d="M205.536 173.29H206.818C206.925 173.29 207.013 173.203 207.013 173.096V172.482C207.013 172.375 206.925 172.288 206.818 172.288H205.536C205.428 172.288 205.341 172.375 205.341 172.482V173.096C205.341 173.203 205.428 173.29 205.536 173.29Z" fill="#3F3D56"/>
<path d="M202.193 173.29H203.475C203.582 173.29 203.669 173.203 203.669 173.096V172.482C203.669 172.375 203.582 172.288 203.475 172.288H202.193C202.085 172.288 201.998 172.375 201.998 172.482V173.096C201.998 173.203 202.085 173.29 202.193 173.29Z" fill="#3F3D56"/>
<path d="M198.85 173.29H200.132C200.239 173.29 200.326 173.203 200.326 173.096V172.482C200.326 172.375 200.239 172.288 200.132 172.288H198.85C198.742 172.288 198.655 172.375 198.655 172.482V173.096C198.655 173.203 198.742 173.29 198.85 173.29Z" fill="#3F3D56"/>
<path d="M249.035 174.962H250.317C250.424 174.962 250.512 174.875 250.512 174.767V174.154C250.512 174.046 250.424 173.959 250.317 173.959H249.035C248.927 173.959 248.84 174.046 248.84 174.154V174.767C248.84 174.875 248.927 174.962 249.035 174.962Z" fill="#3F3D56"/>
<path d="M245.692 174.962H246.974C247.081 174.962 247.169 174.875 247.169 174.767V174.154C247.169 174.046 247.081 173.959 246.974 173.959H245.692C245.584 173.959 245.497 174.046 245.497 174.154V174.767C245.497 174.875 245.584 174.962 245.692 174.962Z" fill="#3F3D56"/>
<path d="M242.349 174.962H243.631C243.738 174.962 243.825 174.875 243.825 174.767V174.154C243.825 174.046 243.738 173.959 243.631 173.959H242.349C242.241 173.959 242.154 174.046 242.154 174.154V174.767C242.154 174.875 242.241 174.962 242.349 174.962Z" fill="#3F3D56"/>
<path d="M239.006 174.962H240.288C240.395 174.962 240.482 174.875 240.482 174.767V174.154C240.482 174.046 240.395 173.959 240.288 173.959H239.006C238.898 173.959 238.811 174.046 238.811 174.154V174.767C238.811 174.875 238.898 174.962 239.006 174.962Z" fill="#3F3D56"/>
<path d="M235.663 174.962H236.945C237.052 174.962 237.14 174.875 237.14 174.767V174.154C237.14 174.046 237.052 173.959 236.945 173.959H235.663C235.555 173.959 235.468 174.046 235.468 174.154V174.767C235.468 174.875 235.555 174.962 235.663 174.962Z" fill="#3F3D56"/>
<path d="M232.32 174.962H233.602C233.709 174.962 233.797 174.875 233.797 174.767V174.154C233.797 174.046 233.709 173.959 233.602 173.959H232.32C232.212 173.959 232.125 174.046 232.125 174.154V174.767C232.125 174.875 232.212 174.962 232.32 174.962Z" fill="#3F3D56"/>
<path d="M228.977 174.962H230.259C230.366 174.962 230.453 174.875 230.453 174.767V174.154C230.453 174.046 230.366 173.959 230.259 173.959H228.977C228.869 173.959 228.782 174.046 228.782 174.154V174.767C228.782 174.875 228.869 174.962 228.977 174.962Z" fill="#3F3D56"/>
<path d="M225.634 174.962H226.916C227.023 174.962 227.11 174.875 227.11 174.767V174.154C227.11 174.046 227.023 173.959 226.916 173.959H225.634C225.526 173.959 225.439 174.046 225.439 174.154V174.767C225.439 174.875 225.526 174.962 225.634 174.962Z" fill="#3F3D56"/>
<path d="M222.291 174.962H223.573C223.68 174.962 223.767 174.875 223.767 174.767V174.154C223.767 174.046 223.68 173.959 223.573 173.959H222.291C222.183 173.959 222.096 174.046 222.096 174.154V174.767C222.096 174.875 222.183 174.962 222.291 174.962Z" fill="#3F3D56"/>
<path d="M218.948 174.962H220.229C220.337 174.962 220.424 174.875 220.424 174.767V174.154C220.424 174.046 220.337 173.959 220.229 173.959H218.948C218.84 173.959 218.753 174.046 218.753 174.154V174.767C218.753 174.875 218.84 174.962 218.948 174.962Z" fill="#3F3D56"/>
<path d="M215.604 174.962H216.886C216.994 174.962 217.081 174.875 217.081 174.767V174.154C217.081 174.046 216.994 173.959 216.886 173.959H215.604C215.497 173.959 215.41 174.046 215.41 174.154V174.767C215.41 174.875 215.497 174.962 215.604 174.962Z" fill="#3F3D56"/>
<path d="M212.262 174.962H213.543C213.651 174.962 213.738 174.875 213.738 174.767V174.154C213.738 174.046 213.651 173.959 213.543 173.959H212.262C212.154 173.959 212.067 174.046 212.067 174.154V174.767C212.067 174.875 212.154 174.962 212.262 174.962Z" fill="#3F3D56"/>
<path d="M208.919 174.962H210.2C210.308 174.962 210.395 174.875 210.395 174.767V174.154C210.395 174.046 210.308 173.959 210.2 173.959H208.919C208.811 173.959 208.724 174.046 208.724 174.154V174.767C208.724 174.875 208.811 174.962 208.919 174.962Z" fill="#3F3D56"/>
<path d="M205.576 174.962H206.857C206.965 174.962 207.052 174.875 207.052 174.767V174.154C207.052 174.046 206.965 173.959 206.857 173.959H205.576C205.468 173.959 205.381 174.046 205.381 174.154V174.767C205.381 174.875 205.468 174.962 205.576 174.962Z" fill="#3F3D56"/>
<path d="M202.232 174.962H203.514C203.622 174.962 203.709 174.875 203.709 174.767V174.154C203.709 174.046 203.622 173.959 203.514 173.959H202.232C202.125 173.959 202.037 174.046 202.037 174.154V174.767C202.037 174.875 202.125 174.962 202.232 174.962Z" fill="#3F3D56"/>
<path d="M198.89 174.962H200.171C200.279 174.962 200.366 174.875 200.366 174.767V174.154C200.366 174.046 200.279 173.959 200.171 173.959H198.89C198.782 173.959 198.695 174.046 198.695 174.154V174.767C198.695 174.875 198.782 174.962 198.89 174.962Z" fill="#3F3D56"/>
<path d="M221.288 176.968H234.27C234.378 176.968 234.465 176.881 234.465 176.773V176.16C234.465 176.052 234.378 175.965 234.27 175.965H221.288C221.18 175.965 221.093 176.052 221.093 176.16V176.773C221.093 176.881 221.18 176.968 221.288 176.968Z" fill="#3F3D56"/>
<path d="M207.533 143.163H206.398C206.054 143.163 205.775 143.442 205.775 143.786C205.775 144.13 206.054 144.409 206.398 144.409H207.533C207.877 144.409 208.156 144.13 208.156 143.786C208.156 143.442 207.877 143.163 207.533 143.163Z" fill="white"/>
<path d="M220.512 143.163H219.377C219.033 143.163 218.754 143.442 218.754 143.786C218.754 144.13 219.033 144.409 219.377 144.409H220.512C220.856 144.409 221.135 144.13 221.135 143.786C221.135 143.442 220.856 143.163 220.512 143.163Z" fill="white"/>
<path d="M224.19 143.163H223.055C222.711 143.163 222.432 143.442 222.432 143.786C222.432 144.13 222.711 144.409 223.055 144.409H224.19C224.534 144.409 224.813 144.13 224.813 143.786C224.813 143.442 224.534 143.163 224.19 143.163Z" fill="white"/>
<path d="M216.982 143.059H209.929C209.585 143.059 209.306 143.338 209.306 143.682C209.306 144.026 209.585 144.305 209.929 144.305H216.982C217.326 144.305 217.605 144.026 217.605 143.682C217.605 143.338 217.326 143.059 216.982 143.059Z" fill="white"/>
<path d="M234.287 143.059H227.234C226.89 143.059 226.611 143.338 226.611 143.682C226.611 144.026 226.89 144.305 227.234 144.305H234.287C234.631 144.305 234.91 144.026 234.91 143.682C234.91 143.338 234.631 143.059 234.287 143.059Z" fill="white"/>
<path d="M210.994 145.975H209.859C209.515 145.975 209.236 146.254 209.236 146.598C209.236 146.942 209.515 147.221 209.859 147.221H210.994C211.338 147.221 211.617 146.942 211.617 146.598C211.617 146.254 211.338 145.975 210.994 145.975Z" fill="white"/>
<path d="M223.973 145.975H222.839C222.495 145.975 222.216 146.254 222.216 146.598C222.216 146.942 222.495 147.221 222.839 147.221H223.973C224.317 147.221 224.596 146.942 224.596 146.598C224.596 146.254 224.317 145.975 223.973 145.975Z" fill="white"/>
<path d="M227.651 145.975H226.516C226.172 145.975 225.893 146.254 225.893 146.598C225.893 146.942 226.172 147.221 226.516 147.221H227.651C227.995 147.221 228.274 146.942 228.274 146.598C228.274 146.254 227.995 145.975 227.651 145.975Z" fill="white"/>
<path d="M220.443 145.871H213.39C213.046 145.871 212.767 146.15 212.767 146.494C212.767 146.838 213.046 147.117 213.39 147.117H220.443C220.787 147.117 221.066 146.838 221.066 146.494C221.066 146.15 220.787 145.871 220.443 145.871Z" fill="white"/>
<path d="M237.748 145.871H230.695C230.351 145.871 230.072 146.15 230.072 146.494C230.072 146.838 230.351 147.117 230.695 147.117H237.748C238.093 147.117 238.371 146.838 238.371 146.494C238.371 146.15 238.093 145.871 237.748 145.871Z" fill="white"/>
<path d="M214.455 148.787H213.32C212.976 148.787 212.698 149.066 212.698 149.41C212.698 149.754 212.976 150.033 213.32 150.033H214.455C214.799 150.033 215.078 149.754 215.078 149.41C215.078 149.066 214.799 148.787 214.455 148.787Z" fill="white"/>
<path d="M227.435 148.787H226.3C225.956 148.787 225.677 149.066 225.677 149.41C225.677 149.754 225.956 150.033 226.3 150.033H227.435C227.779 150.033 228.058 149.754 228.058 149.41C228.058 149.066 227.779 148.787 227.435 148.787Z" fill="white"/>
<path d="M231.112 148.787H229.977C229.633 148.787 229.354 149.066 229.354 149.41C229.354 149.754 229.633 150.033 229.977 150.033H231.112C231.456 150.033 231.735 149.754 231.735 149.41C231.735 149.066 231.456 148.787 231.112 148.787Z" fill="white"/>
<path d="M223.904 148.683H216.851C216.507 148.683 216.228 148.962 216.228 149.306C216.228 149.65 216.507 149.929 216.851 149.929H223.904C224.248 149.929 224.527 149.65 224.527 149.306C224.527 148.962 224.248 148.683 223.904 148.683Z" fill="white"/>
<path d="M241.209 148.683H234.156C233.812 148.683 233.533 148.962 233.533 149.306C233.533 149.65 233.812 149.929 234.156 149.929H241.209C241.554 149.929 241.832 149.65 241.832 149.306C241.832 148.962 241.554 148.683 241.209 148.683Z" fill="white"/>
<path d="M217.917 151.599H216.782C216.438 151.599 216.159 151.878 216.159 152.222C216.159 152.566 216.438 152.845 216.782 152.845H217.917C218.261 152.845 218.539 152.566 218.539 152.222C218.539 151.878 218.261 151.599 217.917 151.599Z" fill="white"/>
<path d="M230.896 151.599H229.761C229.417 151.599 229.138 151.878 229.138 152.222C229.138 152.566 229.417 152.845 229.761 152.845H230.896C231.24 152.845 231.519 152.566 231.519 152.222C231.519 151.878 231.24 151.599 230.896 151.599Z" fill="white"/>
<path d="M234.573 151.599H233.438C233.094 151.599 232.815 151.878 232.815 152.222C232.815 152.566 233.094 152.845 233.438 152.845H234.573C234.917 152.845 235.196 152.566 235.196 152.222C235.196 151.878 234.917 151.599 234.573 151.599Z" fill="white"/>
<path d="M227.365 151.495H220.312C219.968 151.495 219.689 151.774 219.689 152.118C219.689 152.463 219.968 152.741 220.312 152.741H227.365C227.709 152.741 227.988 152.463 227.988 152.118C227.988 151.774 227.709 151.495 227.365 151.495Z" fill="white"/>
<path d="M220.512 162.782H219.377C219.033 162.782 218.754 163.061 218.754 163.405C218.754 163.749 219.033 164.028 219.377 164.028H220.512C220.856 164.028 221.135 163.749 221.135 163.405C221.135 163.061 220.856 162.782 220.512 162.782Z" fill="white"/>
<path d="M224.19 162.782H223.055C222.711 162.782 222.432 163.061 222.432 163.405C222.432 163.749 222.711 164.028 223.055 164.028H224.19C224.534 164.028 224.813 163.749 224.813 163.405C224.813 163.061 224.534 162.782 224.19 162.782Z" fill="white"/>
<path d="M234.287 162.885H227.234C226.89 162.885 226.611 163.164 226.611 163.508C226.611 163.853 226.89 164.131 227.234 164.131H234.287C234.631 164.131 234.91 163.853 234.91 163.508C234.91 163.164 234.631 162.885 234.287 162.885Z" fill="white"/>
<path d="M207.533 162.782H206.398C206.054 162.782 205.775 163.061 205.775 163.405C205.775 163.749 206.054 164.028 206.398 164.028H207.533C207.877 164.028 208.156 163.749 208.156 163.405C208.156 163.061 207.877 162.782 207.533 162.782Z" fill="white"/>
<path d="M216.982 162.885H209.929C209.585 162.885 209.306 163.164 209.306 163.508C209.306 163.853 209.585 164.131 209.929 164.131H216.982C217.326 164.131 217.605 163.853 217.605 163.508C217.605 163.164 217.326 162.885 216.982 162.885Z" fill="white"/>
<path d="M210.994 159.969H209.859C209.515 159.969 209.236 160.248 209.236 160.592C209.236 160.937 209.515 161.215 209.859 161.215H210.994C211.338 161.215 211.617 160.937 211.617 160.592C211.617 160.248 211.338 159.969 210.994 159.969Z" fill="white"/>
<path d="M223.973 159.969H222.839C222.495 159.969 222.216 160.248 222.216 160.592C222.216 160.937 222.495 161.215 222.839 161.215H223.973C224.317 161.215 224.596 160.937 224.596 160.592C224.596 160.248 224.317 159.969 223.973 159.969Z" fill="white"/>
<path d="M227.651 159.969H226.516C226.172 159.969 225.893 160.248 225.893 160.592C225.893 160.937 226.172 161.215 226.516 161.215H227.651C227.995 161.215 228.274 160.937 228.274 160.592C228.274 160.248 227.995 159.969 227.651 159.969Z" fill="white"/>
<path d="M220.443 160.073H213.39C213.046 160.073 212.767 160.352 212.767 160.696C212.767 161.04 213.046 161.319 213.39 161.319H220.443C220.787 161.319 221.066 161.04 221.066 160.696C221.066 160.352 220.787 160.073 220.443 160.073Z" fill="white"/>
<path d="M214.455 157.157H213.32C212.976 157.157 212.698 157.436 212.698 157.78C212.698 158.124 212.976 158.403 213.32 158.403H214.455C214.799 158.403 215.078 158.124 215.078 157.78C215.078 157.436 214.799 157.157 214.455 157.157Z" fill="white"/>
<path d="M227.435 157.157H226.3C225.956 157.157 225.677 157.436 225.677 157.78C225.677 158.124 225.956 158.403 226.3 158.403H227.435C227.779 158.403 228.058 158.124 228.058 157.78C228.058 157.436 227.779 157.157 227.435 157.157Z" fill="white"/>
<path d="M231.112 157.157H229.977C229.633 157.157 229.354 157.436 229.354 157.78C229.354 158.124 229.633 158.403 229.977 158.403H231.112C231.456 158.403 231.735 158.124 231.735 157.78C231.735 157.436 231.456 157.157 231.112 157.157Z" fill="white"/>
<path d="M223.904 157.261H216.851C216.507 157.261 216.228 157.54 216.228 157.884C216.228 158.228 216.507 158.507 216.851 158.507H223.904C224.248 158.507 224.527 158.228 224.527 157.884C224.527 157.54 224.248 157.261 223.904 157.261Z" fill="white"/>
<path d="M217.917 154.345H216.782C216.438 154.345 216.159 154.624 216.159 154.968C216.159 155.312 216.438 155.591 216.782 155.591H217.917C218.261 155.591 218.539 155.312 218.539 154.968C218.539 154.624 218.261 154.345 217.917 154.345Z" fill="white"/>
<path d="M230.896 154.345H229.761C229.417 154.345 229.138 154.624 229.138 154.968C229.138 155.312 229.417 155.591 229.761 155.591H230.896C231.24 155.591 231.519 155.312 231.519 154.968C231.519 154.624 231.24 154.345 230.896 154.345Z" fill="white"/>
<path d="M234.573 154.345H233.438C233.094 154.345 232.815 154.624 232.815 154.968C232.815 155.312 233.094 155.591 233.438 155.591H234.573C234.917 155.591 235.196 155.312 235.196 154.968C235.196 154.624 234.917 154.345 234.573 154.345Z" fill="white"/>
<path d="M227.365 154.449H220.312C219.968 154.449 219.689 154.728 219.689 155.072C219.689 155.416 219.968 155.695 220.312 155.695H227.365C227.709 155.695 227.988 155.416 227.988 155.072C227.988 154.728 227.709 154.449 227.365 154.449Z" fill="white"/>
<path d="M201.5 195.739L196.172 187.318L212.894 173.987L219.797 166.341C220.693 165.347 221.835 164.607 223.108 164.193C224.38 163.779 225.739 163.706 227.049 163.982C228.358 164.258 229.573 164.872 230.57 165.764C231.568 166.657 232.314 167.795 232.734 169.066C233.356 170.949 233.222 173 232.361 174.786C231.499 176.572 229.977 177.954 228.116 178.64L217.202 182.661L201.5 195.739Z" fill="#FFB6B6"/>
<path d="M76.4985 134.68V175.609H105.172V134.68C105.173 134.386 105.079 134.099 104.904 133.862C104.73 133.625 104.484 133.45 104.202 133.363C104.07 133.319 103.931 133.298 103.791 133.299H77.8833C77.7017 133.299 77.5218 133.334 77.3539 133.404C77.186 133.473 77.0334 133.574 76.9048 133.703C76.7762 133.831 76.6741 133.983 76.6044 134.151C76.5347 134.319 76.4987 134.498 76.4985 134.68ZM87.6886 148.743C87.6961 147.937 88.0219 147.165 88.5951 146.597C89.1683 146.029 89.9426 145.711 90.7495 145.711C91.5564 145.711 92.3307 146.029 92.9039 146.597C93.4771 147.165 93.8029 147.937 93.8104 148.743V153.492C93.8063 154.302 93.482 155.076 92.9084 155.647C92.3348 156.217 91.5586 156.538 90.7495 156.538C89.9404 156.538 89.1642 156.217 88.5906 155.647C88.017 155.076 87.6927 154.302 87.6886 153.492V148.743Z" fill="#242528"/>
<path d="M76.4109 174.3V178.247C76.4115 178.451 76.4928 178.647 76.637 178.792C76.7811 178.937 76.9767 179.02 77.1811 179.021H104.49C104.694 179.02 104.89 178.938 105.035 178.793C105.179 178.648 105.26 178.452 105.26 178.247V174.3H76.4109Z" fill="#3F3D56"/>
<path d="M31.3911 73.015V147.746C31.3919 148.698 31.7705 149.611 32.4439 150.285C33.1173 150.958 34.0304 151.337 34.9828 151.337H145.726C146.678 151.337 147.591 150.958 148.265 150.285C148.938 149.611 149.317 148.698 149.318 147.746V73.015C149.315 72.0635 148.936 71.1517 148.263 70.4793C147.59 69.8068 146.678 69.4286 145.726 69.4274H34.9828C34.0313 69.4286 33.119 69.8068 32.4458 70.4793C31.7726 71.1517 31.3934 72.0635 31.3911 73.015Z" fill="#242528"/>
<path d="M33.989 73.9449V146.824C33.9899 147.333 34.1924 147.82 34.5522 148.18C34.912 148.54 35.3997 148.743 35.9086 148.743H144.804C145.313 148.743 145.801 148.54 146.16 148.18C146.52 147.82 146.723 147.333 146.724 146.824V73.9449C146.724 73.4355 146.521 72.9468 146.162 72.5862C145.802 72.2256 145.314 72.0225 144.804 72.0214H35.9086C35.3991 72.0225 34.9109 72.2256 34.5511 72.5862C34.1912 72.9468 33.9891 73.4355 33.989 73.9449Z" fill="#E4F5FF"/>
<path d="M54.1985 178.754C54.3093 178.893 54.4502 179.005 54.6105 179.082C54.7709 179.158 54.9465 179.198 55.1243 179.197H119.91C120.087 179.197 120.262 179.157 120.422 179.081C120.582 179.004 120.723 178.893 120.834 178.756C120.946 178.618 121.026 178.457 121.067 178.285C121.109 178.113 121.112 177.934 121.075 177.76L120.07 172.983C120.028 172.788 119.938 172.607 119.809 172.456C119.679 172.305 119.514 172.188 119.327 172.117C119.193 172.064 119.049 172.037 118.904 172.037H56.126C55.9812 172.037 55.8377 172.064 55.703 172.117C55.5168 172.188 55.3514 172.305 55.2218 172.456C55.0921 172.607 55.0024 172.788 54.9607 172.983L53.955 177.76C53.9192 177.934 53.9225 178.113 53.9646 178.284C54.0067 178.456 54.0866 178.617 54.1985 178.754Z" fill="#242528"/>
<path d="M141.27 82.0608H39.3773C39.2713 82.0584 39.1706 82.0147 39.0965 81.939C39.0224 81.8632 38.981 81.7615 38.981 81.6556C38.981 81.5496 39.0224 81.4479 39.0965 81.3722C39.1706 81.2964 39.2713 81.2527 39.3773 81.2504H141.27C141.376 81.2527 141.477 81.2964 141.551 81.3722C141.625 81.4479 141.667 81.5496 141.667 81.6556C141.667 81.7615 141.625 81.8632 141.551 81.939C141.477 82.0147 141.376 82.0584 141.27 82.0608Z" fill="#3F3D56"/>
<path d="M46.3131 79.1815C47.6246 79.1815 48.6878 78.0946 48.6878 76.7539C48.6878 75.4132 47.6246 74.3263 46.3131 74.3263C45.0016 74.3263 43.9385 75.4132 43.9385 76.7539C43.9385 78.0946 45.0016 79.1815 46.3131 79.1815Z" fill="#3F3D56"/>
<path d="M54.5165 79.1815C55.828 79.1815 56.8912 78.0946 56.8912 76.7539C56.8912 75.4132 55.828 74.3263 54.5165 74.3263C53.205 74.3263 52.1418 75.4132 52.1418 76.7539C52.1418 78.0946 53.205 79.1815 54.5165 79.1815Z" fill="#3F3D56"/>
<path d="M62.7199 79.1815C64.0314 79.1815 65.0945 78.0946 65.0945 76.7539C65.0945 75.4132 64.0314 74.3263 62.7199 74.3263C61.4084 74.3263 60.3452 75.4132 60.3452 76.7539C60.3452 78.0946 61.4084 79.1815 62.7199 79.1815Z" fill="#3F3D56"/>
<path d="M136.331 74.9266H130.504C130.389 74.9293 130.279 74.977 130.199 75.0594C130.118 75.1418 130.073 75.2524 130.073 75.3676C130.073 75.4828 130.118 75.5935 130.199 75.6759C130.279 75.7583 130.389 75.8059 130.504 75.8086H136.331C136.446 75.807 136.557 75.7598 136.638 75.6773C136.72 75.5947 136.765 75.4835 136.765 75.3676C136.765 75.2517 136.72 75.1405 136.638 75.058C136.557 74.9755 136.446 74.9283 136.331 74.9266Z" fill="#3F3D56"/>
<path d="M136.331 76.5829H130.504C130.389 76.5854 130.279 76.633 130.199 76.7154C130.118 76.7979 130.073 76.9086 130.073 77.0239C130.073 77.1392 130.118 77.2499 130.199 77.3323C130.279 77.4147 130.389 77.4623 130.504 77.4648H136.331C136.447 77.4634 136.557 77.4164 136.639 77.3338C136.721 77.2513 136.766 77.1399 136.766 77.0239C136.766 76.9078 136.721 76.7965 136.639 76.7139C136.557 76.6314 136.447 76.5843 136.331 76.5829Z" fill="#3F3D56"/>
<path d="M136.331 78.239H130.504C130.389 78.2417 130.279 78.2893 130.199 78.3718C130.118 78.4542 130.073 78.5648 130.073 78.68C130.073 78.7952 130.118 78.9058 130.199 78.9882C130.279 79.0706 130.389 79.1183 130.504 79.121H136.331C136.446 79.1193 136.557 79.0722 136.638 78.9896C136.72 78.9071 136.765 78.7959 136.765 78.68C136.765 78.5641 136.72 78.4529 136.638 78.3703C136.557 78.2878 136.446 78.2406 136.331 78.239Z" fill="#3F3D56"/>
<path d="M276.797 176.032C276.972 176.544 277.306 176.987 277.749 177.298C278.193 177.608 278.723 177.77 279.264 177.761L289.836 177.489C290.381 177.478 290.909 177.291 291.339 176.956C291.769 176.621 292.079 176.156 292.223 175.63L293.719 159.632C294.25 159.873 294.828 159.992 295.41 159.98C295.917 159.967 296.415 159.855 296.878 159.649C297.341 159.444 297.759 159.149 298.108 158.783C298.456 158.416 298.73 157.984 298.912 157.511C299.094 157.039 299.181 156.535 299.168 156.029C299.155 155.523 299.043 155.024 298.838 154.561C298.632 154.098 298.338 153.681 297.971 153.332C297.604 152.983 297.172 152.709 296.699 152.527C296.227 152.346 295.723 152.258 295.217 152.271C294.984 152.27 294.752 152.295 294.524 152.343C294.276 152.075 293.975 151.862 293.64 151.718C293.305 151.573 292.944 151.5 292.579 151.504L276.316 151.924C276.182 151.929 276.047 151.946 275.915 151.974C275.559 152.04 275.22 152.182 274.923 152.39C274.626 152.599 274.377 152.868 274.193 153.18C274.009 153.493 273.893 153.841 273.855 154.202C273.817 154.563 273.856 154.928 273.971 155.272L276.797 176.032ZM294.026 158.546L295.091 154.734C295.212 154.294 295.214 153.829 295.099 153.387C295.15 153.387 295.196 153.363 295.248 153.362C295.978 153.347 296.684 153.622 297.211 154.127C297.739 154.632 298.045 155.325 298.062 156.055C298.079 156.785 297.806 157.492 297.302 158.021C296.799 158.55 296.107 158.857 295.377 158.876C294.905 158.891 294.438 158.777 294.026 158.546Z" fill="#242528"/>
<path d="M275.915 151.974C276.262 153.955 280.157 155.347 284.841 155.105C289.148 154.907 292.67 153.395 293.315 151.602C293.076 151.532 292.828 151.498 292.579 151.504L276.316 151.924C276.182 151.929 276.047 151.946 275.915 151.974Z" fill="#3F3D56"/>
<path d="M285.699 167.241C285.721 167.236 285.741 167.227 285.759 167.215L288.055 165.712C288.083 165.694 288.106 165.669 288.122 165.64C288.137 165.611 288.146 165.578 288.146 165.545C288.146 165.512 288.138 165.48 288.122 165.45C288.106 165.421 288.083 165.397 288.055 165.378L285.669 163.815C285.647 163.801 285.623 163.791 285.597 163.786C285.571 163.781 285.545 163.781 285.519 163.786C285.493 163.792 285.469 163.802 285.447 163.817C285.425 163.831 285.407 163.85 285.392 163.872C285.378 163.894 285.368 163.919 285.363 163.945C285.358 163.97 285.358 163.997 285.364 164.023C285.369 164.048 285.38 164.073 285.395 164.094C285.409 164.116 285.428 164.135 285.45 164.149L287.582 165.545L285.541 166.881C285.501 166.907 285.472 166.946 285.459 166.991C285.445 167.036 285.449 167.085 285.468 167.128C285.486 167.171 285.52 167.207 285.563 167.227C285.605 167.248 285.653 167.253 285.699 167.241Z" fill="#F26716"/>
<path d="M282.073 167.409C282.112 167.399 282.146 167.378 282.173 167.348C282.199 167.319 282.216 167.282 282.222 167.242C282.227 167.203 282.221 167.163 282.203 167.127C282.186 167.092 282.158 167.062 282.123 167.042L280.007 165.829L282.053 164.31C282.074 164.294 282.091 164.274 282.105 164.252C282.118 164.229 282.127 164.204 282.131 164.179C282.135 164.153 282.133 164.126 282.127 164.101C282.121 164.075 282.109 164.052 282.094 164.031C282.078 164.01 282.058 163.992 282.036 163.978C282.013 163.965 281.989 163.956 281.963 163.952C281.937 163.948 281.91 163.95 281.885 163.956C281.86 163.962 281.836 163.974 281.815 163.989L279.524 165.691C279.498 165.71 279.477 165.736 279.463 165.766C279.449 165.796 279.442 165.829 279.444 165.862C279.446 165.895 279.456 165.928 279.474 165.956C279.491 165.984 279.515 166.007 279.544 166.024L281.925 167.388C281.97 167.414 282.023 167.421 282.073 167.409Z" fill="#F26716"/>
<path d="M285.471 168.559C285.49 168.554 285.509 168.546 285.526 168.535C285.548 168.522 285.568 168.504 285.583 168.483C285.599 168.462 285.61 168.438 285.616 168.412C285.622 168.387 285.623 168.36 285.619 168.334C285.615 168.308 285.606 168.284 285.593 168.261L282.338 162.91C282.31 162.865 282.266 162.833 282.215 162.82C282.163 162.808 282.109 162.816 282.064 162.844C282.019 162.872 281.986 162.916 281.974 162.967C281.961 163.019 281.97 163.073 281.997 163.118L285.252 168.469C285.274 168.505 285.307 168.534 285.347 168.55C285.386 168.566 285.43 168.569 285.471 168.559Z" fill="#F26716"/>
<path d="M102.498 104.089H84.8627C84.1433 104.089 83.5601 104.673 83.5601 105.392V107.115C83.5601 107.835 84.1433 108.418 84.8627 108.418H102.498C103.218 108.418 103.801 107.835 103.801 107.115V105.392C103.801 104.673 103.218 104.089 102.498 104.089Z" fill="#061852"/>
<path d="M112.778 112.746H74.5832C73.8637 112.746 73.2805 113.329 73.2805 114.049V115.772C73.2805 116.491 73.8637 117.074 74.5832 117.074H112.778C113.497 117.074 114.08 116.491 114.08 115.772V114.049C114.08 113.329 113.497 112.746 112.778 112.746Z" fill="#061852"/>
<path d="M112.778 121.403H74.5832C73.8637 121.403 73.2805 121.986 73.2805 122.705V124.428C73.2805 125.148 73.8637 125.731 74.5832 125.731H112.778C113.497 125.731 114.08 125.148 114.08 124.428V122.705C114.08 121.986 113.497 121.403 112.778 121.403Z" fill="#061852"/>
<path d="M116.015 150.39L116.102 150.663L116.106 150.672L118.71 158.589L121.706 167.712L127.342 184.857L127.397 187.52V187.529L127.815 208.953L126.655 211.858L127.961 216.62C127.961 216.62 127.36 209.421 124.137 213.555C122.312 215.904 120.176 218.308 118.424 220.562C120.978 221.595 123.573 222.53 126.208 223.366C126.778 223.548 127.351 223.721 127.925 223.894C128.048 223.93 128.171 223.967 128.294 224.003C137.031 226.587 146.064 228.039 155.172 228.324C155.645 228.337 156.109 228.346 156.56 228.355C156.719 228.36 156.874 228.365 157.029 228.365C157.539 228.369 158.044 228.374 158.554 228.374C159.583 228.374 160.607 228.358 161.627 228.328C169.175 228.115 176.679 227.101 184.012 225.301C183.962 222.273 183.825 218.736 183.629 214.957C183.538 213.104 181.494 211.097 181.371 209.157C181.285 207.701 183.119 206.33 183.024 204.851C182.405 195.741 181.631 199.238 181.057 192.787C180.998 192.154 180.943 191.549 180.893 190.971C180.524 186.828 180.27 184.238 180.27 184.238L182.719 168.8L186.566 144.562L186.27 144.075L185.937 143.911L165.647 133.869L164.545 131.046C164.224 130.233 163.667 129.534 162.946 129.04C162.225 128.546 161.372 128.279 160.498 128.274L147.132 128.219C146.438 128.216 145.754 128.378 145.135 128.692C144.517 129.007 143.983 129.464 143.576 130.026L139.957 135.039L116.015 150.39Z" fill="#A2CEFD"/>
<path d="M130.424 181.042L127.397 187.52L125.33 191.945L121.774 210.56L119.994 212.45L118.469 205.761L102.507 209.305C101.984 206.396 102.367 209.404 102.044 206.213C102.135 206.122 102.23 206.03 102.326 205.939C102.581 205.703 102.795 205.48 102.79 205.266C102.608 194.258 103.155 175.524 107.716 164.175C108.431 162.322 109.373 160.564 110.52 158.944C110.612 158.821 110.698 158.698 110.785 158.575C112.888 155.63 114.217 152.73 116.102 150.667V150.663C116.114 150.653 116.124 150.643 116.134 150.631C116.141 150.628 116.147 150.623 116.152 150.617L129.099 143.752L129.655 159.358L130.051 170.575L130.424 181.042Z" fill="#A2CEFD"/>
<path d="M177.11 182.882L180.891 190.973L182.211 193.791L185.766 212.404L187.54 214.289L189.069 207.602L189.787 207.455L202.74 204.772L206.516 216.763C207.367 215.345 207.702 213.677 207.465 212.04C207.228 210.404 206.433 208.9 205.214 207.782C204.956 207.548 204.742 207.321 204.748 207.106C204.963 194.159 204.171 170.518 197.019 160.787C194.747 157.699 193.384 154.624 191.402 152.475C191.395 152.469 191.395 152.463 191.389 152.463L186.564 144.562L186.269 144.077L185.938 143.911L177.11 182.882Z" fill="#A2CEFD"/>
<path d="M154.201 124.415C164.022 124.415 171.983 116.454 171.983 106.633C171.983 96.8123 164.022 88.851 154.201 88.851C144.38 88.851 136.419 96.8123 136.419 106.633C136.419 116.454 144.38 124.415 154.201 124.415Z" fill="#FFB6B6"/>
<path d="M178.236 94.2123C178.098 94.0651 177.932 93.9471 177.747 93.8655C177.563 93.7839 177.364 93.7404 177.162 93.7374L177.429 92.9952C177.517 92.7614 177.54 92.5086 177.498 92.2627C177.455 92.0168 177.348 91.7866 177.187 91.5957C177.026 91.4049 176.818 91.2602 176.583 91.1765C176.348 91.0929 176.094 91.0732 175.849 91.1195L174.875 91.3071L174.967 90.6566C175.002 90.4143 174.974 90.1671 174.885 89.9391C174.795 89.7112 174.648 89.5105 174.458 89.3566C174.267 89.2028 174.04 89.1012 173.798 89.0619C173.557 89.0225 173.309 89.0467 173.08 89.1321C172.871 89.2143 172.646 89.2487 172.423 89.2328C172.199 89.2169 171.982 89.1511 171.787 89.0403C171.591 88.9329 171.421 88.7841 171.288 88.6042C171.156 88.4243 171.065 88.2176 171.02 87.9987L170.681 86.3625L170.645 86.2747C168.993 83.5211 165.816 81.5178 161.929 80.7835C158.469 80.125 154.922 80.4602 151.502 80.7755C150.145 80.9032 148.612 81.0468 147.335 81.829C146.25 82.4995 145.332 83.8404 145.519 85.1932C142.147 84.1596 138.532 86.2228 136.74 88.8248C134.617 91.9216 134.27 95.8006 134.214 98.8336C134.062 106.009 135.543 111.879 138.604 116.285C138.827 116.604 138.883 117.271 139.326 117.494L139.234 117.347C139.729 117.594 140.232 117.993 140.044 118.42C139.505 119.649 143.085 122.367 145.607 123.265C150.209 124.905 156.326 124.765 160.628 124.175L160.78 123.157C162.333 122.946 163.426 122.543 163.733 121.912C164.276 121.449 164.739 121.034 165.142 120.651L165.146 120.647C165.154 120.639 165.17 120.627 165.178 120.619C167.121 118.755 167.572 117.694 167.776 116.078C167.971 114.493 167.624 112.885 167.269 111.436C174.748 112.594 164.324 103.471 171.292 101.707C171.372 101.682 171.453 101.662 171.535 101.647C171.739 101.599 171.942 101.551 172.138 101.495C173.08 101.24 173.983 100.854 174.82 100.35C176.767 99.1649 177.41 97.5925 178.415 95.8206C178.56 95.5683 178.621 95.2763 178.589 94.9871C178.557 94.6978 178.433 94.4264 178.236 94.2123Z" fill="#313131"/>
<path d="M217.094 184.148C217.09 184.846 217.082 185.824 217.05 187.033C217.046 187.201 217.042 187.372 217.038 187.548C216.986 189.771 216.934 191.634 216.85 193.706C216.846 193.849 216.842 193.989 216.834 194.133C216.723 197.022 216.547 200.386 216.244 205.714C215.681 215.555 214.699 207.067 213.714 210.519C213.666 210.69 213.614 210.894 213.566 211.133C213.417 212.002 213.165 212.85 212.816 213.659C212.293 213.971 211.754 214.27 211.223 214.569C209.711 215.411 208.174 216.221 206.626 216.992C205.756 217.423 204.882 217.846 204.004 218.253C203.864 218.317 203.729 218.38 203.593 218.44C199.097 220.52 194.464 222.288 189.725 223.732C188.799 224.011 187.877 224.283 186.944 224.534C185.97 224.806 184.996 225.061 184.01 225.3C176.678 227.101 169.174 228.116 161.626 228.329C160.609 228.361 159.583 228.373 158.553 228.373C158.043 228.373 157.54 228.369 157.029 228.365C156.873 228.365 156.718 228.361 156.562 228.357C156.111 228.345 155.644 228.337 155.173 228.325C146.066 228.041 137.033 226.589 128.296 224.003L127.924 223.896C127.35 223.72 126.779 223.548 126.208 223.365C123.575 222.531 120.979 221.597 118.423 220.563C116.471 219.777 114.542 218.934 112.636 218.033C112.619 218.029 112.602 218.02 112.588 218.009C112.189 217.826 111.786 217.634 111.387 217.439C111.335 217.411 111.279 217.383 111.223 217.355C109.735 216.628 108.262 215.868 106.805 215.072C105.58 212.259 103.856 211.72 102.787 209.246C102.475 208.511 102.25 207.742 102.116 206.955C102.116 206.947 102.112 206.939 102.112 206.927C102.224 208.412 101.637 204.293 102.108 206.911C102.104 206.863 102.1 206.811 102.096 206.751C102.084 206.608 102.068 206.432 102.045 206.213C100.676 192.848 100.763 177.563 100.169 164.968C100.129 164.154 100.088 163.375 100.045 162.63C100.033 162.382 100.017 162.139 100.001 161.899C100.029 161.828 100.061 161.752 100.097 161.68C100.105 161.659 100.114 161.639 100.125 161.62C100.137 161.595 100.15 161.571 100.165 161.548C100.173 161.536 100.185 161.52 100.193 161.508C100.199 161.495 100.205 161.481 100.213 161.468C100.249 161.413 100.289 161.353 100.332 161.297C100.352 161.273 100.368 161.253 100.388 161.233C100.402 161.213 100.418 161.194 100.436 161.177C100.448 161.158 100.463 161.14 100.48 161.125C100.496 161.109 100.512 161.089 100.532 161.069C100.541 161.057 100.551 161.046 100.564 161.037C100.595 161.001 100.63 160.968 100.668 160.938C100.81 160.807 100.962 160.687 101.123 160.578C101.178 160.543 101.238 160.507 101.294 160.467C101.696 160.226 102.12 160.023 102.559 159.86C102.711 159.804 102.863 159.752 103.026 159.697C103.086 159.681 103.142 159.661 103.202 159.641C103.29 159.613 103.377 159.585 103.469 159.565C103.924 159.429 104.415 159.313 104.946 159.206C105.01 159.194 105.077 159.182 105.145 159.166C105.241 159.146 105.341 159.13 105.441 159.114C105.576 159.09 105.716 159.066 105.856 159.042C107.041 158.854 108.386 158.715 109.87 158.623C110.01 158.615 110.15 158.607 110.289 158.599C110.453 158.591 110.617 158.583 110.784 158.575C110.924 158.567 111.068 158.563 111.211 158.559C111.351 158.551 111.495 158.547 111.642 158.543C112.045 158.531 112.46 158.519 112.883 158.511C114.089 158.487 115.358 158.495 116.691 158.523C117.309 158.539 117.94 158.555 118.586 158.583C118.63 158.583 118.67 158.587 118.71 158.587C119.273 158.607 119.839 158.631 120.422 158.663C120.829 158.683 121.24 158.703 121.651 158.727C122.038 158.751 122.429 158.775 122.824 158.803C123.132 158.819 123.439 158.842 123.75 158.862C124.014 158.882 124.277 158.902 124.54 158.918L124.899 158.942C125.095 158.958 125.291 158.97 125.49 158.99C125.929 159.026 126.368 159.062 126.815 159.098C127.258 159.138 127.709 159.178 128.16 159.218C128.611 159.258 129.066 159.301 129.521 159.345C129.569 159.349 129.613 159.353 129.656 159.357C130.071 159.401 130.487 159.441 130.906 159.485C131.001 159.493 131.101 159.501 131.197 159.513C131.596 159.553 132.004 159.6 132.407 159.643C132.531 159.656 132.654 159.669 132.778 159.683C133.094 159.717 133.405 159.747 133.723 159.784C134.142 159.832 134.569 159.876 134.984 159.932C135.307 159.968 135.631 160.004 135.954 160.044C136.461 160.104 136.975 160.167 137.49 160.235C137.686 160.259 137.881 160.283 138.077 160.311C139.545 160.495 141.03 160.698 142.539 160.91C144.825 161.233 147.148 161.584 149.486 161.963C151.829 162.342 154.185 162.743 156.554 163.164C157.153 163.272 157.751 163.38 158.354 163.492C158.625 163.544 158.897 163.595 159.168 163.647C159.631 163.731 160.094 163.819 160.557 163.907C161.02 163.995 161.483 164.082 161.946 164.174C162.496 164.282 163.051 164.39 163.602 164.497C167.229 165.216 170.837 165.982 174.357 166.784C174.935 166.916 175.514 167.051 176.089 167.183C177.238 167.451 178.377 167.722 179.505 167.997C179.816 168.069 180.123 168.145 180.431 168.221C181.197 168.412 181.963 168.604 182.717 168.799L182.849 168.835C183.404 168.971 183.947 169.111 184.489 169.254C185.77 169.59 187.03 169.929 188.269 170.272C189.091 170.499 189.903 170.73 190.707 170.962C191.908 171.31 193.085 171.661 194.231 172.016C194.514 172.104 194.797 172.191 195.077 172.275C195.915 172.535 196.741 172.798 197.543 173.061C198.182 173.269 198.804 173.481 199.419 173.692C200.033 173.904 200.636 174.115 201.226 174.327C201.606 174.462 201.981 174.606 202.356 174.742C202.895 174.941 203.425 175.141 203.944 175.34C204.104 175.4 204.259 175.464 204.415 175.524C204.515 175.568 204.611 175.604 204.706 175.643C204.894 175.719 205.086 175.791 205.269 175.867C205.457 175.939 205.64 176.015 205.824 176.094C206.003 176.166 206.187 176.242 206.363 176.318C206.542 176.39 206.718 176.466 206.893 176.545C207.041 176.605 207.185 176.669 207.324 176.733C207.608 176.857 207.891 176.98 208.166 177.108C208.302 177.172 208.438 177.232 208.573 177.296L208.885 177.439C208.929 177.463 208.973 177.483 209.016 177.503C209.116 177.551 209.22 177.603 209.32 177.651C209.551 177.759 209.779 177.874 210.002 177.982C210.301 178.134 210.593 178.285 210.872 178.433C211.155 178.585 211.431 178.736 211.694 178.884C211.738 178.908 211.778 178.932 211.822 178.956C211.882 178.988 211.942 179.024 212.002 179.056C212.205 179.171 212.401 179.291 212.596 179.407C212.979 179.642 213.342 179.874 213.682 180.105C213.757 180.157 213.829 180.209 213.905 180.257C214.156 180.436 214.396 180.612 214.619 180.792C214.619 180.796 214.619 180.796 214.623 180.796C214.699 180.851 214.771 180.911 214.843 180.967C214.903 181.023 214.967 181.071 215.026 181.127C215.234 181.306 215.426 181.478 215.601 181.654C215.66 181.708 215.716 181.765 215.769 181.825C215.792 181.844 215.813 181.866 215.833 181.889C215.912 181.969 215.984 182.049 216.052 182.128C216.063 182.139 216.072 182.151 216.08 182.164C216.176 182.276 216.264 182.388 216.347 182.5C216.387 182.555 216.431 182.611 216.467 182.667C216.515 182.735 216.563 182.807 216.603 182.875C216.639 182.931 216.671 182.99 216.703 183.046C216.787 183.19 216.859 183.341 216.918 183.497C216.963 183.603 216.999 183.713 217.026 183.825C217.056 183.931 217.079 184.039 217.094 184.148Z" fill="#191A1E"/>
<path opacity="0.2" d="M217.094 184.148C217.09 184.846 217.082 185.824 217.05 187.033C217.046 187.201 217.038 187.372 217.034 187.548C216.994 189.244 216.934 191.339 216.85 193.706C216.846 193.849 216.842 193.989 216.834 194.133C216.723 197.022 216.547 200.386 216.244 205.714C215.681 215.555 214.699 207.067 213.714 210.519C210.976 208.835 207.975 207.071 204.766 205.259C204.188 204.932 203.604 204.603 203.014 204.273C196.597 200.693 189.43 196.942 181.947 193.227C181.652 193.079 181.353 192.931 181.057 192.788C163.917 184.315 145.209 176.075 130.052 170.575C127.126 169.514 124.333 168.556 121.707 167.714C116.176 165.946 111.395 164.709 107.715 164.174C103.884 163.615 101.238 163.815 100.169 164.968C100.129 164.154 100.088 163.375 100.045 162.63C100.029 162.382 100.013 162.139 99.9973 161.899C100.022 161.834 100.054 161.771 100.085 161.708C100.089 161.698 100.093 161.689 100.097 161.68C100.105 161.659 100.114 161.639 100.125 161.62C100.137 161.595 100.15 161.571 100.165 161.548C100.178 161.52 100.194 161.493 100.213 161.468C100.249 161.412 100.289 161.353 100.333 161.297C100.365 161.255 100.399 161.215 100.436 161.177C100.449 161.158 100.463 161.14 100.48 161.125C100.496 161.109 100.512 161.089 100.532 161.069C100.541 161.057 100.551 161.046 100.564 161.037C100.596 161.001 100.63 160.968 100.668 160.938C100.81 160.807 100.962 160.687 101.123 160.578C101.179 160.542 101.238 160.507 101.294 160.467C101.696 160.226 102.12 160.023 102.559 159.86C102.711 159.804 102.863 159.752 103.026 159.696C103.086 159.68 103.142 159.661 103.202 159.641C103.29 159.613 103.377 159.585 103.469 159.565C103.924 159.429 104.415 159.313 104.946 159.206C105.105 159.174 105.273 159.142 105.441 159.114C105.576 159.09 105.716 159.066 105.856 159.042C107.041 158.854 108.386 158.715 109.87 158.623C110.01 158.615 110.15 158.607 110.289 158.599C110.453 158.591 110.617 158.583 110.784 158.575C110.924 158.567 111.068 158.563 111.211 158.559C111.351 158.551 111.495 158.547 111.642 158.543C112.045 158.531 112.46 158.519 112.883 158.511C114.089 158.491 115.358 158.499 116.691 158.527C117.309 158.539 117.94 158.559 118.586 158.587C118.626 158.587 118.67 158.591 118.71 158.591C119.273 158.607 119.843 158.635 120.422 158.663C120.829 158.683 121.24 158.703 121.651 158.727C122.038 158.751 122.429 158.775 122.824 158.803C123.132 158.818 123.439 158.842 123.75 158.862C124.014 158.882 124.277 158.902 124.54 158.918C124.856 158.942 125.171 158.966 125.49 158.99C125.929 159.026 126.368 159.062 126.815 159.098C127.258 159.138 127.709 159.178 128.16 159.218C128.611 159.257 129.066 159.301 129.521 159.345C129.569 159.349 129.613 159.353 129.657 159.357C130.072 159.401 130.487 159.441 130.906 159.485C133.228 159.72 135.619 159.996 138.077 160.311C139.546 160.499 141.033 160.699 142.539 160.914C144.825 161.237 147.148 161.588 149.487 161.963C151.829 162.342 154.185 162.743 156.554 163.164C157.153 163.272 157.751 163.38 158.354 163.492C159.088 163.627 159.823 163.766 160.557 163.907C161.02 163.994 161.483 164.082 161.946 164.174C162.496 164.282 163.051 164.39 163.602 164.497C167.229 165.216 170.837 165.982 174.357 166.784C174.936 166.916 175.514 167.051 176.089 167.183C177.238 167.45 178.377 167.722 179.505 167.997C179.816 168.073 180.124 168.149 180.431 168.225C181.201 168.416 181.963 168.608 182.718 168.799V168.803C182.761 168.811 182.805 168.823 182.849 168.835C183.4 168.975 183.947 169.115 184.489 169.258C185.77 169.594 187.03 169.931 188.269 170.272C189.091 170.503 189.905 170.731 190.707 170.962C191.908 171.314 193.085 171.665 194.231 172.016C194.514 172.104 194.798 172.191 195.077 172.275C195.915 172.539 196.737 172.801 197.543 173.061C198.182 173.269 198.804 173.48 199.419 173.692C200.033 173.904 200.636 174.115 201.227 174.327C201.61 174.462 201.985 174.602 202.356 174.738C202.899 174.937 203.426 175.137 203.944 175.34C204.104 175.4 204.26 175.464 204.415 175.524C204.707 175.636 204.99 175.751 205.269 175.867C205.457 175.939 205.64 176.015 205.824 176.094C206.004 176.166 206.187 176.242 206.363 176.318C206.542 176.39 206.718 176.466 206.893 176.545C207.041 176.605 207.185 176.669 207.324 176.733C207.608 176.857 207.891 176.98 208.167 177.108C208.302 177.172 208.438 177.232 208.574 177.296L208.885 177.439C208.929 177.463 208.973 177.483 209.017 177.503C209.356 177.663 209.683 177.822 210.002 177.982C210.302 178.134 210.593 178.285 210.872 178.433C211.203 178.609 211.519 178.78 211.822 178.956C211.882 178.988 211.942 179.024 212.002 179.056C212.205 179.171 212.401 179.291 212.596 179.407C212.979 179.642 213.343 179.874 213.682 180.105C214.017 180.337 214.328 180.564 214.62 180.792C214.62 180.796 214.62 180.796 214.624 180.796C214.763 180.907 214.899 181.019 215.027 181.127C215.234 181.306 215.426 181.478 215.601 181.654C215.66 181.708 215.716 181.765 215.769 181.825C215.792 181.844 215.814 181.866 215.833 181.889C215.917 181.981 216 182.073 216.08 182.164C216.176 182.276 216.264 182.388 216.348 182.5C216.387 182.555 216.431 182.611 216.467 182.667C216.515 182.735 216.563 182.807 216.603 182.875C216.639 182.931 216.671 182.99 216.703 183.046C216.787 183.19 216.86 183.341 216.918 183.497C216.962 183.604 216.998 183.713 217.026 183.824C217.056 183.931 217.079 184.039 217.094 184.148Z" fill="#525252"/>
</g>
<defs>
<clipPath id="clip0_3975_5">
<rect width="314" height="228.374" fill="white"/>
</clipPath>
</defs>
</svg>
